<svg xmlns="http://www.w3.org/2000/svg" width="24" height="13" viewBox="0 0 24 13">
<path fill="#000" fill-rule="nonzero" d="M19.996 1.335C17.828.48 14.986 0 11.973 0S6.106.468 3.949 1.335C2.477 1.917 0 3.253 0 5.558c0 2.306 2.477 3.63 3.95 4.223.73.286 1.528.537 2.385.73L6.3 7.785c-.49-.137-.958-.285-1.38-.457C3.343 6.7 2.624 5.97 2.624 5.558c0-.41.72-1.141 2.294-1.769 1.86-.742 4.372-1.152 7.054-1.152 2.682 0 5.193.41 7.053 1.152 1.575.628 2.294 1.358 2.294 1.77 0 .41-.719 1.14-2.294 1.768-.65.263-1.38.48-2.18.651 0 0-.981.251-1.963.41l.046-2.955-6.7 3.835L14.815 13l.034-2.1a9.689 9.689 0 0 0 2.032-.24c1.13-.217 2.18-.513 3.115-.879 1.473-.582 3.95-1.917 3.95-4.223 0-2.305-2.477-3.63-3.95-4.223z" opacity=".437">
</path></svg>