<svg xmlns="http://www.w3.org/2000/svg" width="100" height="100" viewBox="-70 -70 270 70">
<g id="Regular-M">
   <path fill="#000" d="M 12.4512 -10.1562 C 12.4512 -7.03125 14.7461 -4.88281 18.2129 -4.88281 L 29.2969 -4.88281 C 37.7441 -4.88281 42.7734 -7.32422 48.877 -14.4043 L 59.8145 -27.1973 L 70.8008 -14.4043 C 76.8066 -7.32422 81.8848 -4.83398 90.3809 -4.83398 L 99.3652 -4.83398 L 99.3652 6.00586 C 99.3652 8.64258 101.025 10.3027 103.711 10.3027 C 104.883 10.3027 106.104 9.86328 107.031 9.08203 L 125.488 -6.15234 C 127.686 -7.95898 127.686 -10.8887 125.488 -12.6953 L 107.031 -28.0273 C 106.104 -28.8086 104.883 -29.248 103.711 -29.248 C 101.025 -29.248 99.3652 -27.5879 99.3652 -24.9512 L 99.3652 -15.4785 L 90.6738 -15.4785 C 85.5957 -15.4785 82.4707 -17.0898 78.5156 -21.7285 L 66.8457 -35.3516 L 78.5156 -48.9258 C 82.4707 -53.6133 85.5957 -55.2246 90.6738 -55.2246 L 99.3652 -55.2246 L 99.3652 -45.4102 C 99.3652 -42.7734 101.025 -41.1133 103.711 -41.1133 C 104.883 -41.1133 106.104 -41.5527 107.031 -42.334 L 125.488 -57.5684 C 127.686 -59.375 127.686 -62.2559 125.488 -64.1113 L 107.031 -79.4434 C 106.104 -80.2246 104.883 -80.6641 103.711 -80.6641 C 101.025 -80.6641 99.3652 -79.0039 99.3652 -76.3672 L 99.3652 -65.8203 L 90.3809 -65.8203 C 81.8848 -65.8203 76.8066 -63.3301 70.8008 -56.25 L 59.8145 -43.457 L 48.877 -56.25 C 42.7734 -63.3301 37.7441 -65.8203 29.2969 -65.8203 L 18.2129 -65.8203 C 14.7461 -65.8203 12.4512 -63.6719 12.4512 -60.498 C 12.4512 -57.373 14.7949 -55.1758 18.2129 -55.1758 L 29.541 -55.1758 C 34.2285 -55.1758 37.207 -53.5645 41.2109 -48.9258 L 52.8809 -35.3516 L 41.2109 -21.7285 C 37.1582 -17.0898 34.1797 -15.4785 29.541 -15.4785 L 18.2129 -15.4785 C 14.7949 -15.4785 12.4512 -13.2812 12.4512 -10.1562 Z"/>
  </g>
</svg>